<svg width="24" height="24" viewBox="0 0 24 24" fill="none" xmlns="http://www.w3.org/2000/svg">
<path fill-rule="evenodd" clip-rule="evenodd" d="M13.5254 3.11567C12.6017 2.49985 11.3983 2.49985 10.4746 3.11567L3.47457 7.78234C2.70953 8.29237 2.25 9.151 2.25 10.0705V19.0001C2.25 20.5189 3.48122 21.7501 5 21.7501H9C9.41421 21.7501 9.75 21.4143 9.75 21.0001V16.0001C9.75 15.3098 10.3096 14.7501 11 14.7501H13C13.6904 14.7501 14.25 15.3098 14.25 16.0001V21.0001C14.25 21.4143 14.5858 21.7501 15 21.7501H19C20.5188 21.7501 21.75 20.5189 21.75 19.0001V10.0705C21.75 9.151 21.2905 8.29237 20.5254 7.78234L13.5254 3.11567Z" fill="#5E94FF"/>
</svg>
